<?xml version="1.0" encoding="UTF-8"?><svg id="Layer_1" xmlns="http://www.w3.org/2000/svg" viewBox="0 0 697.02 696.6"><path d="M351.28,1.45l17.15,24.61c1.23,1.77,3.78,1.95,5.25.37l20.41-21.98c1.6-1.72,4.43-1.33,5.49.77l13.56,26.76c.97,1.92,3.48,2.45,5.15,1.09l23.27-18.93c1.82-1.48,4.57-.7,5.33,1.53l9.7,28.39c.7,2.04,3.1,2.91,4.95,1.8l25.68-15.51c2.01-1.22,4.62-.05,5.07,2.26l5.66,29.46c.41,2.12,2.66,3.32,4.65,2.47l27.59-11.78c2.16-.92,4.59.59,4.7,2.94l1.5,29.96c.11,2.15,2.18,3.66,4.26,3.09l28.96-7.83c2.27-.61,4.46,1.22,4.25,3.57l-2.68,29.88c-.19,2.15,1.65,3.92,3.79,3.66l29.77-3.72c2.33-.29,4.25,1.83,3.71,4.12l-6.81,29.21c-.49,2.1,1.08,4.11,3.24,4.15l29.99.46c2.35.04,3.95,2.4,3.1,4.6l-10.81,27.98c-.78,2.01.5,4.23,2.63,4.56l29.64,4.63c2.32.36,3.58,2.93,2.43,4.98l-14.6,26.2c-1.05,1.88-.09,4.25,1.97,4.88l28.71,8.71c2.25.68,3.13,3.4,1.71,5.27l-18.11,23.92c-1.3,1.72-.68,4.2,1.27,5.11l27.22,12.62c2.13.99,2.63,3.8.96,5.46l-21.26,21.16c-1.53,1.52-1.26,4.06.55,5.23l25.19,16.28c1.98,1.28,2.08,4.13.19,5.54l-24,18c-1.72,1.29-1.81,3.85-.18,5.26l22.68,19.63c1.78,1.54,1.48,4.38-.58,5.52l-26.27,14.48c-1.89,1.04-2.33,3.56-.91,5.18l19.73,22.6c1.55,1.77.86,4.54-1.34,5.38l-28.03,10.69c-2.01.77-2.8,3.2-1.63,5.01l16.39,25.12c1.29,1.97.22,4.62-2.08,5.14l-29.24,6.68c-2.1.48-3.22,2.78-2.31,4.73l12.74,27.16c1,2.13-.43,4.6-2.77,4.8l-29.89,2.55c-2.15.18-3.58,2.3-2.94,4.36l8.83,28.67c.69,2.25-1.07,4.5-3.41,4.37l-29.95-1.64c-2.15-.12-3.86,1.78-3.52,3.91l4.76,29.62c.37,2.32-1.68,4.31-3.99,3.85l-29.43-5.79c-2.12-.42-4.07,1.23-4.03,3.38l.59,29.99c.05,2.35-2.26,4.03-4.49,3.26l-28.34-9.83c-2.04-.71-4.21.65-4.46,2.79l-3.59,29.78c-.28,2.34-2.8,3.68-4.9,2.6l-26.7-13.68c-1.92-.98-4.25.06-4.81,2.14l-7.7,28.99c-.6,2.27-3.29,3.25-5.21,1.9l-24.53-17.26c-1.76-1.24-4.22-.54-5.06,1.45l-11.66,27.64c-.91,2.17-3.71,2.76-5.43,1.15l-21.89-20.51c-1.57-1.47-4.11-1.12-5.21.73l-15.39,25.75c-1.21,2.02-4.06,2.22-5.53.39l-18.83-23.35c-1.35-1.68-3.91-1.68-5.26,0l-18.83,23.35c-1.48,1.83-4.33,1.63-5.53-.39l-15.39-25.75c-1.11-1.85-3.64-2.21-5.21-.73l-21.89,20.51c-1.72,1.61-4.51,1.01-5.43-1.15l-11.66-27.64c-.84-1.99-3.3-2.69-5.06-1.45l-24.53,17.26c-1.92,1.35-4.61.38-5.21-1.9l-7.7-28.99c-.55-2.08-2.89-3.12-4.81-2.14l-26.7,13.68c-2.09,1.07-4.62-.27-4.9-2.6l-3.59-29.78c-.26-2.14-2.43-3.5-4.46-2.79l-28.34,9.83c-2.22.77-4.53-.91-4.49-3.26l.59-29.99c.04-2.16-1.92-3.8-4.03-3.38l-29.43,5.79c-2.31.45-4.36-1.53-3.99-3.85l4.76-29.62c.34-2.13-1.37-4.03-3.52-3.91l-29.95,1.64c-2.35.13-4.11-2.12-3.41-4.37l8.83-28.67c.63-2.06-.8-4.18-2.94-4.36l-29.89-2.55c-2.34-.2-3.77-2.67-2.77-4.8l12.74-27.16c.92-1.95-.21-4.25-2.31-4.73l-29.24-6.68c-2.29-.52-3.36-3.17-2.08-5.14l16.39-25.12c1.18-1.81.39-4.24-1.63-5.01l-28.03-10.69c-2.2-.84-2.89-3.61-1.34-5.38l19.73-22.6c1.42-1.62.97-4.14-.91-5.18l-26.27-14.48c-2.06-1.14-2.36-3.98-.58-5.52l22.68-19.63c1.63-1.41,1.54-3.97-.18-5.26l-24-18c-1.88-1.41-1.78-4.27.19-5.54l25.19-16.28c1.81-1.17,2.08-3.71.55-5.23l-21.26-21.16c-1.67-1.66-1.17-4.47.96-5.46l27.22-12.62c1.96-.91,2.57-3.39,1.27-5.11l-18.11-23.92c-1.42-1.88-.54-4.59,1.71-5.27l28.71-8.71c2.06-.63,3.02-3,1.97-4.88l-14.6-26.2c-1.15-2.05.11-4.62,2.43-4.98l29.64-4.63c2.13-.33,3.41-2.55,2.63-4.56l-10.81-27.98c-.85-2.19.75-4.56,3.1-4.6l29.99-.46c2.16-.03,3.73-2.05,3.24-4.15l-6.81-29.21c-.53-2.29,1.38-4.41,3.71-4.12l29.77,3.72c2.14.27,3.98-1.51,3.79-3.66l-2.68-29.88c-.21-2.34,1.98-4.18,4.25-3.57l28.96,7.83c2.08.56,4.15-.94,4.26-3.09l1.5-29.96c.12-2.35,2.54-3.86,4.7-2.94l27.59,11.78c1.98.85,4.24-.35,4.65-2.47l5.66-29.46c.44-2.31,3.05-3.47,5.07-2.26l25.68,15.51c1.85,1.11,4.25.24,4.95-1.8l9.7-28.39c.76-2.23,3.51-3.01,5.33-1.53l23.27,18.93c1.67,1.36,4.17.83,5.15-1.09l13.56-26.76c1.06-2.1,3.89-2.5,5.49-.77l20.41,21.98c1.47,1.58,4.02,1.4,5.25-.37l17.15-24.61c1.35-1.93,4.2-1.93,5.55,0Z"/></svg>